<?xml version="1.0" encoding="utf-8"?>
<!-- Generator: Adobe Illustrator 18.1.0, SVG Export Plug-In . SVG Version: 6.00 Build 0)  -->
<!DOCTYPE svg PUBLIC "-//W3C//DTD SVG 1.1//EN" "http://www.w3.org/Graphics/SVG/1.1/DTD/svg11.dtd">
<svg version="1.1" id="Layer_1" xmlns="http://www.w3.org/2000/svg" xmlns:xlink="http://www.w3.org/1999/xlink" x="0px" y="0px"
	 viewBox="0 0 127.6 127.6" enable-background="new 0 0 127.6 127.6" xml:space="preserve">
<rect x="-128.7" y="-187.5" fill-rule="evenodd" clip-rule="evenodd" fill="#D19AFD" width="1" height="142"/>
<circle fill-rule="evenodd" clip-rule="evenodd" fill="#434351" stroke="#A64DFF" stroke-width="2" stroke-linecap="round" stroke-linejoin="round" stroke-miterlimit="10" cx="-128.2" cy="-251.5" r="62.5"/>
<circle fill-rule="evenodd" clip-rule="evenodd" fill="#434351" stroke="#4DFF7A" stroke-width="2" stroke-linecap="round" stroke-linejoin="round" stroke-miterlimit="10" cx="63.5" cy="64.1" r="62.5"/>
<rect x="-128.7" y="82.5" fill-rule="evenodd" clip-rule="evenodd" fill="#91B1FC" width="1" height="142"/>
<rect x="-128.7" y="-187.5" fill-rule="evenodd" clip-rule="evenodd" fill="#A84FFF" width="1" height="142"/>
<rect x="-128.7" y="352.5" fill-rule="evenodd" clip-rule="evenodd" fill="#52E7FF" width="1" height="142"/>
<rect x="-128.7" y="623.5" fill-rule="evenodd" clip-rule="evenodd" fill="#58FB9C" width="1" height="142"/>
<rect x="-128.7" y="893.5" fill-rule="evenodd" clip-rule="evenodd" fill="#FCFC50" width="1" height="142"/>
<rect x="-128.7" y="1155.5" fill-rule="evenodd" clip-rule="evenodd" fill="#F4A250" width="1" height="142"/>
<rect x="-128.7" y="1426.5" fill-rule="evenodd" clip-rule="evenodd" fill="#FF8B35" width="1" height="142"/>
<rect x="-128.7" y="1697.5" fill-rule="evenodd" clip-rule="evenodd" fill="#FF0B0B" width="1" height="142"/>
<g>
	<path fill="#BB69FC" d="M-112.4-277.7c-10.2,0-15.8-6.8-15.8-6.8s-5.6,6.8-15.8,6.8c-9.4,0-15.8-5.6-15.8-5.6v36.7
		c0.3,24.2,31.5,34.2,31.5,34.2s31.5-10,31.5-34.2v-36.7C-96.7-283.4-103-277.7-112.4-277.7z"/>
</g>
<linearGradient id="SVGID_1_" gradientUnits="userSpaceOnUse" x1="81.7776" y1="52.056" x2="41.5911" y2="92.4793">
	<stop  offset="0" style="stop-color:#5FFA9E"/>
	<stop  offset="1" style="stop-color:#34D57C"/>
</linearGradient>
<path fill-rule="evenodd" clip-rule="evenodd" fill="url(#SVGID_1_)" d="M58.2,90.5l-8.3-9.2l4.7-4.1l3.6,4.1l16.2-15.1l4.6,5.3
	L58.2,90.5z M52.2,43.2c0-3.5,1.1-11.5,11.6-11.5s11.6,8,11.6,11.5v15.4H52.2V43.2L52.2,43.2z M89,58.7h-5.8V43.2
	c0-1.7-0.3-6.1-2.6-10.3c-2.3-4-7-8.8-16.8-8.8c-9.7,0-14.5,4.8-16.8,8.8c-2.4,4.2-2.6,8.6-2.6,10.3v15.4H40c-2.2,0-4,1.8-4,4v31.5
	c0,2.2,1.8,4,4,4h49c2.2,0,4-1.8,4-4V62.6C93,60.4,91.2,58.7,89,58.7z"/>
<circle fill-rule="evenodd" clip-rule="evenodd" fill="#434351" stroke="#FFB255" stroke-width="2" stroke-linecap="round" stroke-linejoin="round" stroke-miterlimit="10" cx="-127.2" cy="1092" r="62.5"/>
<g>
	<g>
		<g>
			<path fill="#F4964A" d="M-89.8,1091.6c0-16.9-11.3-31.1-26.8-35l5.5,5.5l-7.6,7.7c9.3,2.8,15.6,11.5,15.6,21.8
				c0,10.7-7.3,19.7-17.7,22.2v-7.4l-17.3,14.8l17.3,14.8v-8.5C-103.7,1124.8-89.8,1109.7-89.8,1091.6z"/>
			<path fill="#F4964A" d="M-134.8,1113.4c-9.2-2.8-16.5-11.5-16.5-21.8c0-10.5,5.9-19.4,16.4-22v8.5l17.3-16l-17.3-13.5v7.4
				c-17.1,2.8-29.6,17.7-29.6,35.6c0,16.9,11.9,31.1,27.3,35l-5.3-5.5L-134.8,1113.4z"/>
		</g>
	</g>
</g>
<circle fill-rule="evenodd" clip-rule="evenodd" fill="#434351" stroke="#FF0000" stroke-width="2" stroke-linecap="round" stroke-linejoin="round" stroke-miterlimit="10" cx="-127.2" cy="1633" r="62.5"/>
<g>
	<path fill="#FF3939" d="M-137.9,1615.2c4.4,0,7.9,3.5,7.9,7.9c0,4.4-3.6,7.9-8,7.9c-4.4,0-7.9-3.5-7.9-7.9
		C-145.8,1618.8-142.2,1615.2-137.9,1615.2z"/>
	<path fill-rule="evenodd" clip-rule="evenodd" fill="#FF3939" d="M-144.2,1610.7c6.9-3.5,15.4-0.8,18.9,6
		c3.5,6.8,0.7,15.3-6.2,18.8c-7,3.6-15.4,0.8-18.9-6C-154,1622.7-151.2,1614.3-144.2,1610.7z M-162.1,1635.4
		c0.6,1.3,1.4,2.5,2.2,3.6l6.4-0.6c1,1,2.1,1.9,3.3,2.7l0.4,6.3c2.4,1.1,4.9,1.9,7.5,2.3l4.1-4.9l0.2,0c1.3,0,2.6-0.1,3.8-0.3
		l4.7,4.1c1.2-0.4,2.5-0.9,3.7-1.6s2.4-1.3,3.4-2.1l-0.5-6c1.1-1,2-2.1,2.9-3.2l6.1-0.5c1.2-2.3,2-4.8,2.5-7.4l-4.4-3.7
		c0-0.4,0.1-0.8,0.1-1.2c0-1.3-0.1-2.5-0.3-3.8l3.8-4.4c-0.4-1.3-1-2.6-1.6-3.9c-0.5-1-1.1-1.9-1.7-2.8l-5.7,0.5
		c-1.3-1.4-2.7-2.7-4.3-3.7l-0.4-5.7c-2.2-1.1-4.4-1.8-6.8-2.2l-3.8,4.4c-0.4,0-0.8-0.1-1.2-0.1c-1.6,0-3.2,0.2-4.8,0.5l-4.4-3.8
		c-1.1,0.4-2.2,0.9-3.3,1.4c-1.1,0.6-2.1,1.2-3.1,1.8l0.5,6c-1.4,1.3-2.6,2.7-3.6,4.3l-6.1,0.5c-1,2.2-1.8,4.5-2.2,6.8l4.8,4l0,0.2
		c0,1.6,0.2,3.2,0.5,4.8l-4.2,4.7C-163.1,1633.4-162.6,1634.4-162.1,1635.4z"/>
	<path fill="#FF3939" d="M-105.8,1646.2c2.6,0,4.7,2.1,4.7,4.7c0,2.6-2.1,4.7-4.8,4.7c-2.6,0-4.7-2.1-4.7-4.7
		C-110.6,1648.4-108.4,1646.2-105.8,1646.2z"/>
	<path fill-rule="evenodd" clip-rule="evenodd" fill="#FF3939" d="M-105,1659.3c-4.6,0.5-8.7-2.9-9.2-7.4c-0.5-4.6,2.9-8.7,7.5-9.1
		s8.7,2.8,9.2,7.4C-97.1,1654.7-100.4,1658.8-105,1659.3z M-97.3,1637.4l-3,1.7c-0.2-0.1-0.4-0.2-0.6-0.3c-0.9-0.3-1.8-0.6-2.8-0.7
		l-1.6-3.1c-0.7,0-1.4,0-2.1,0.1c-0.7,0.1-1.4,0.2-2.1,0.4l-1,3.4c-1,0.4-2,1-2.9,1.7l-3.4-1.1c-1,1-1.9,2.1-2.7,3.4l1.8,3.3l0,0.1
		c-0.4,0.9-0.6,1.8-0.8,2.8l-3.3,1.7c0,0.6,0,1.3,0.1,1.9c0.1,0.9,0.2,1.7,0.4,2.5l3.7,1.1c0.3,0.8,0.8,1.5,1.2,2.2l-1.1,3.6
		c1.1,1.1,2.3,2.1,3.6,2.9l3.3-1.8l0.1,0.1c0.7,0.3,1.4,0.5,2.2,0.6l1.7,3.3c0.8,0,1.6,0,2.4-0.1c0.8-0.1,1.6-0.2,2.3-0.4l1-3.5
		c0.8-0.3,1.6-0.7,2.3-1.2l3.4,1c1.2-1,2.2-2.2,3-3.6l-1.7-3c0.1-0.2,0.2-0.4,0.3-0.7c0.3-0.7,0.5-1.5,0.6-2.2l3.1-1.6
		c0-0.8,0-1.7-0.1-2.5c-0.1-0.7-0.2-1.3-0.3-1.9l-3.2-0.9c-0.4-1.1-0.9-2.1-1.6-3l1-3.3C-95,1639.1-96.1,1638.2-97.3,1637.4z"/>
</g>
<circle fill-rule="evenodd" clip-rule="evenodd" fill="#434351" stroke="#FF8CDE" stroke-width="2" stroke-linecap="round" stroke-linejoin="round" stroke-miterlimit="10" cx="-127.2" cy="1903" r="62.5"/>
<g>
	<g>
		<path fill="#FF4DFF" d="M-137.2,1890.2c-0.8,5.5-1.3,11.1-1.3,16.7c0.8,0.2,1.5,0.4,2.2,0.8c7.1-5.5,14.8-9.5,22.9-12
			c0.1-0.5,0.2-0.9,0.3-1.4c-5.7-3.8-11.8-6.7-18.1-8.5C-132.4,1888.1-134.6,1889.7-137.2,1890.2z"/>
		<path fill="#FF4DFF" d="M-133.5,1873.7c2.1,1.6,3.5,4.1,3.7,6.9c7,2,13.6,5.1,19.9,9.3c1.6-1.2,3.6-2,5.7-2c3.6,0,6.6,2,8.2,5
			c0.6,0,1.2,0,1.8,0c1.4,0,2.9,0.1,4.3,0.2c-4.5-16.4-19.5-28.6-37.3-28.6c-1.1,0-2.1,0-3.2,0.1
			C-131.5,1867.6-132.6,1870.6-133.5,1873.7z"/>
		<path fill="#FF4DFF" d="M-95.1,1898.3c-0.1,1.2-0.5,2.4-1.1,3.4c2.4,2.6,4.8,5.4,7,8.4c0.4-2.2,0.6-4.5,0.6-6.9
			c0-1.6-0.1-3.1-0.3-4.6c-1.8-0.2-3.6-0.3-5.4-0.3C-94.5,1898.3-94.8,1898.3-95.1,1898.3z"/>
		<path fill="#FF4DFF" d="M-147.9,1878.1c1.2-3.7,4.7-6.3,8.8-6.3c0.2,0,0.4,0,0.6,0c0.6-2.1,1.3-4.2,2.1-6.3
			c-8.3,2.1-15.5,6.8-20.7,13.2C-154.1,1878.4-151,1878.1-147.9,1878.1z"/>
		<path fill="#FF4DFF" d="M-100,1905.5c-1.3,0.7-2.7,1.1-4.3,1.1c-3.7,0-6.9-2.2-8.4-5.4c-6.9,2.2-13.6,5.7-19.7,10.3
			c0.8,1.3,1.2,2.9,1.2,4.6c0,4.1-2.6,7.5-6.2,8.8c0.8,5.6,1.9,11.1,3.5,16.5c2.2,0.4,4.4,0.6,6.8,0.6c16.5,0,30.7-10.5,36.2-25.2
			C-93.8,1912.7-96.8,1908.9-100,1905.5z"/>
		<path fill="#FF4DFF" d="M-148.9,1919.8c-0.5-1.2-0.8-2.4-0.8-3.8c0-3.9,2.4-7.2,5.8-8.6c0-6,0.5-11.9,1.3-17.7
			c-2.7-1.1-4.8-3.4-5.5-6.2c-4.4,0-8.9,0.6-13.2,1.6c-2.9,5.4-4.5,11.6-4.5,18.1c0,9.9,3.7,19,9.9,25.9
			C-153.7,1925.8-151.4,1922.7-148.9,1919.8z"/>
		<path fill="#FF4DFF" d="M-145.4,1923.9c-2.3,2.8-4.5,5.8-6.6,8.9c3.5,3,7.6,5.3,12,6.9c-1.2-4.8-2.2-9.7-2.9-14.7
			C-143.7,1924.8-144.6,1924.4-145.4,1923.9z"/>
	</g>
</g>
<circle fill-rule="evenodd" clip-rule="evenodd" fill="#434351" stroke="#FF842C" stroke-width="2" stroke-linecap="round" stroke-linejoin="round" stroke-miterlimit="10" cx="-127.2" cy="1362" r="62.5"/>
<g>
	<path fill="#FF711C" d="M-125.7,1380.4c-2.3,0-4.2,1.9-4.2,4.2c0,2.3,1.9,4.2,4.2,4.2s4.2-1.9,4.2-4.2
		C-121.5,1382.3-123.4,1380.4-125.7,1380.4z"/>
	<path fill-rule="evenodd" clip-rule="evenodd" fill="#FF711C" d="M-125.7,1391.5c-3.7,0-6.7-2.7-7.2-6.2l2-24.6h2.9v-5.1h4.3v5.1
		h3.2l2,24.9C-119,1389.1-122,1391.5-125.7,1391.5z M-130.2,1334.6h3.6v2.2h-3.6V1334.6z M-125.8,1351.2v2.2h-3.6v-2.2H-125.8z
		 M-125.8,1344.7h-3.6v-2.2h3.6V1344.7z M-122.2,1346.9v2.2h-3.6v-2.2H-122.2z M-125.8,1338.2h3.6v2.2h-3.6V1338.2z M-104.9,1330.2
		h-43.3c-6,0-10.8,4.9-10.8,10.9v43.4c0,6,4.8,10.9,10.8,10.9h43.3c6,0,10.8-4.9,10.8-10.9v-43.4
		C-94.1,1335.1-98.9,1330.2-104.9,1330.2z"/>
</g>
<rect x="-129.2" y="1333.5" fill-rule="evenodd" clip-rule="evenodd" fill="#434351" width="4.9" height="3.7"/>
<rect x="-124.3" y="1337.2" fill-rule="evenodd" clip-rule="evenodd" fill="#434351" width="4.9" height="3.7"/>
<rect x="-129.2" y="1340.9" fill-rule="evenodd" clip-rule="evenodd" fill="#434351" width="4.9" height="3.7"/>
<rect x="-124.3" y="1344.6" fill-rule="evenodd" clip-rule="evenodd" fill="#434351" width="4.9" height="3.7"/>
<rect x="-124.3" y="1348.3" fill-rule="evenodd" clip-rule="evenodd" fill="#FF711C" width="4.9" height="3.7"/>
<rect x="-129.2" y="1352" fill-rule="evenodd" clip-rule="evenodd" fill="#FF711C" width="4.9" height="2.5"/>
<rect x="-129.2" y="1348.3" fill-rule="evenodd" clip-rule="evenodd" fill="#434351" width="4.9" height="3.7"/>
<circle fill-rule="evenodd" clip-rule="evenodd" fill="#434351" stroke="#FFFF4D" stroke-width="2" stroke-linecap="round" stroke-linejoin="round" stroke-miterlimit="10" cx="-128.2" cy="828.5" r="62.5"/>
<polygon fill="#FEFE84" points="-95.7,861.4 -95.7,861.4 -95.7,795.8 -118.9,789 -160.6,804.9 -160.7,804.9 -160.7,852.3 
	-146.4,846.7 -146.4,808.1 -118.9,801.4 -118.9,858.2 -160.6,852.3 -118.9,868 -118.9,868 -95.7,861.5 -95.7,861.4 "/>
</svg>
